Coordinates
version=1
nRows=16
nColumns=40
inDegrees=yes

Units are S.I. units (second, meters, Newtons, ...)
If the header above contains a line with 'inDegrees', this indicates whether rotational values are in degrees (yes) or radians (no).

endheader
time	pelvis_tilt	pelvis_list	pelvis_rotation	pelvis_tx	pelvis_ty	pelvis_tz	hip_flexion_r	hip_adduction_r	hip_rotation_r	knee_angle_r	knee_angle_r_beta	ankle_angle_r	subtalar_angle_r	mtp_angle_r	hip_flexion_l	hip_adduction_l	hip_rotation_l	knee_angle_l	knee_angle_l_beta	ankle_angle_l	subtalar_angle_l	mtp_angle_l	lumbar_extension	lumbar_bending	lumbar_rotation	arm_flex_r	arm_add_r	arm_rot_r	elbow_flex_r	pro_sup_r	wrist_flex_r	wrist_dev_r	arm_flex_l	arm_add_l	arm_rot_l	elbow_flex_l	pro_sup_l	wrist_flex_l	wrist_dev_l
      0.60500000	     -8.12552712	      0.36311834	     -3.52024955	      0.18894725	      0.76293976	     -1.19943295	     43.29008285	    -33.81486152	    -20.47286811	     67.74747778	      1.18241655	     15.76259929	     -1.49491144	      0.00000000	     38.69779407	    -40.11200608	    -30.64013981	     66.04187684	      1.15264820	     14.63090497	     11.92795733	      0.00000000	     -7.81368467	     -1.57906946	      2.68483381	     44.99672199	    -15.00095813	     44.99672199	     75.00018190	     45.00000025	      0.00000000	      0.00000000	     44.99672199	    -15.00095813	     44.99672199	     75.00018190	     45.00000025	      0.00000000	      0.00000000
      0.61000000	     -8.68955091	      0.29312406	     -3.49361218	      0.18818729	      0.75890604	     -1.19937656	     44.42081889	    -33.92019129	    -20.16618279	     68.61178522	      1.19750156	     16.27268189	     -1.15932146	      0.00000000	     40.00747111	    -40.54380131	    -30.13039591	     66.97469861	      1.16892901	     15.06344769	     12.39157124	      0.00000000	     -7.33753028	     -1.43114871	      2.72243352	     44.99674742	    -15.00094656	     44.99674742	     75.00018178	     45.00000025	      0.00000000	      0.00000000	     44.99674742	    -15.00094656	     44.99674742	     75.00018178	     45.00000025	      0.00000000	      0.00000000
      0.61500000	     -8.67463064	      0.31576330	     -3.48632910	      0.18759488	      0.75644518	     -1.19919005	     44.81735385	    -34.10513065	    -19.97309076	     69.22157363	      1.20814437	     16.58487317	     -1.17267823	      0.00000000	     40.36968365	    -40.75908583	    -29.90715960	     67.54204150	      1.17883101	     15.40489970	     12.63256466	      0.00000000	     -7.52533699	     -1.50065079	      2.76470746	     44.99677090	    -15.00093608	     44.99677090	     75.00018167	     45.00000025	      0.00000000	      0.00000000	     44.99677090	    -15.00093608	     44.99677090	     75.00018167	     45.00000025	      0.00000000	      0.00000000
      0.62000000	     -8.73266866	      0.32358573	     -3.44743305	      0.18688457	      0.75378423	     -1.19916967	     45.32437201	    -34.28392678	    -19.71373462	     69.87545145	      1.21955669	     16.82484039	     -1.08353321	      0.00000000	     40.87620324	    -41.01303469	    -29.71230189	     68.16081710	      1.18963068	     15.58180921	     12.75923191	      0.00000000	     -7.69461032	     -1.45630947	      2.74142653	     44.99679316	    -15.00092612	     44.99679316	     75.00018157	     45.00000025	      0.00000000	      0.00000000	     44.99679316	    -15.00092612	     44.99679316	     75.00018157	     45.00000025	      0.00000000	      0.00000000
      0.62500000	     -8.83014457	      0.34093643	     -3.43294195	      0.18625396	      0.75098871	     -1.19903678	     45.88165877	    -34.47569012	    -19.48985882	     70.53242264	      1.23102300	     17.07752433	     -1.00959671	      0.00000000	     41.43978231	    -41.26740577	    -29.45056992	     68.82071493	      1.20114807	     15.78616507	     12.88696632	      0.00000000	     -7.77748113	     -1.48627065	      2.76410120	     44.99681710	    -15.00091539	     44.99681710	     75.00018146	     45.00000025	      0.00000000	      0.00000000	     44.99681710	    -15.00091539	     44.99681710	     75.00018146	     45.00000025	      0.00000000	      0.00000000
      0.63000000	     -8.68535487	      0.37201364	     -3.43025228	      0.18556878	      0.74885407	     -1.19891554	     46.15138472	    -34.65450344	    -19.26903465	     71.09525937	      1.24084636	     17.16406814	     -1.13933456	      0.00000000	     41.62781084	    -41.47640847	    -29.35759780	     69.33923930	      1.21019803	     15.80194776	     12.74000291	      0.00000000	     -8.16450630	     -1.56280336	      2.76774583	     44.99683846	    -15.00090596	     44.99683846	     75.00018137	     45.00000025	      0.00000000	      0.00000000	     44.99683846	    -15.00090596	     44.99683846	     75.00018137	     45.00000025	      0.00000000	      0.00000000
      0.63500000	     -8.97424877	      0.38244539	     -3.39182512	      0.18497896	      0.74550843	     -1.19887438	     46.94640367	    -34.86193312	    -19.00296160	     71.83414103	      1.25374228	     17.59294749	     -0.84036995	      0.00000000	     42.48109930	    -41.75133895	    -28.98966989	     70.08229396	      1.22316678	     16.19631276	     13.17295666	      0.00000000	     -7.99666495	     -1.53268286	      2.78508954	     44.99686372	    -15.00089463	     44.99686372	     75.00018125	     45.00000025	      0.00000000	      0.00000000	     44.99686372	    -15.00089463	     44.99686372	     75.00018125	     45.00000025	      0.00000000	      0.00000000
      0.64000000	     -8.82683695	      0.41484993	     -3.38993383	      0.18429919	      0.74338708	     -1.19873329	     47.20860265	    -35.03048905	    -18.77258225	     72.38400345	      1.26333919	     17.67285895	     -0.99011729	      0.00000000	     42.67052642	    -41.94716924	    -28.86936165	     70.58158835	      1.23188111	     16.20885539	     13.00696261	      0.00000000	     -8.39646618	     -1.60625565	      2.78675185	     44.99688463	    -15.00088540	     44.99688463	     75.00018116	     45.00000025	      0.00000000	      0.00000000	     44.99688463	    -15.00088540	     44.99688463	     75.00018116	     45.00000025	      0.00000000	      0.00000000
      0.64500000	     -8.75063049	      0.44964186	     -3.36951907	      0.18366846	      0.74098924	     -1.19866504	     47.57269877	    -35.23022689	    -18.52732704	     72.99531206	      1.27400853	     17.92892697	     -1.00820811	      0.00000000	     42.97704982	    -42.15118387	    -28.68937923	     71.15422935	      1.24187558	     16.42934713	     13.13197975	      0.00000000	     -8.70184446	     -1.64527499	      2.78727385	     44.99690326	    -15.00087718	     44.99690326	     75.00018108	     45.00000025	      0.00000000	      0.00000000	     44.99690326	    -15.00087718	     44.99690326	     75.00018108	     45.00000025	      0.00000000	      0.00000000
      0.65000000	     -9.26365671	      0.40718324	     -3.30850374	      0.18305692	      0.73705530	     -1.19863609	     48.60710254	    -35.39208101	    -18.27456606	     73.77476246	      1.28761251	     18.36676215	     -0.66880014	      0.00000000	     44.23714154	    -42.46633257	    -28.10654384	     71.97953811	      1.25627993	     16.80828278	     13.50336002	      0.00000000	     -8.24733533	     -1.53479957	      2.82937265	     44.99692848	    -15.00086578	     44.99692848	     75.00018097	     45.00000025	      0.00000000	      0.00000000	     44.99692848	    -15.00086578	     44.99692848	     75.00018097	     45.00000025	      0.00000000	      0.00000000
      0.65500000	     -9.07590513	      0.42547285	     -3.30932935	      0.18241870	      0.73502662	     -1.19851671	     48.81344004	    -35.55310191	    -18.06397832	     74.30968676	      1.29694870	     18.42927627	     -0.79635273	      0.00000000	     44.37884458	    -42.67332653	    -27.98405494	     72.46632613	      1.26477599	     16.82802430	     13.38630008	      0.00000000	     -8.70275797	     -1.59880584	      2.82403674	     44.99694634	    -15.00085792	     44.99694634	     75.00018089	     45.00000025	      0.00000000	      0.00000000	     44.99694634	    -15.00085792	     44.99694634	     75.00018089	     45.00000025	      0.00000000	      0.00000000
      0.66000000	     -8.95671718	      0.45239583	     -3.30633219	      0.18180126	      0.73275585	     -1.19842951	     49.12074316	    -35.73006383	    -17.82781596	     74.87552340	      1.30682441	     18.61422679	     -0.82881712	      0.00000000	     44.61403544	    -42.88108047	    -27.82136576	     73.00058160	      1.27410050	     16.97956214	     13.45548434	      0.00000000	     -9.06830055	     -1.64533595	      2.82277410	     44.99696452	    -15.00084993	     44.99696452	     75.00018081	     45.00000025	      0.00000000	      0.00000000	     44.99696452	    -15.00084993	     44.99696452	     75.00018081	     45.00000025	      0.00000000	      0.00000000
      0.66500000	     -9.25684953	      0.45962856	     -3.27115144	      0.18137652	      0.72936262	     -1.19835085	     49.89526091	    -35.92930382	    -17.56812631	     75.56497000	      1.31885753	     19.06738200	     -0.39904869	      0.00000000	     45.46852553	    -43.15769113	    -27.44575640	     73.70864885	      1.28645861	     17.42697240	     14.04478822	      0.00000000	     -8.84961623	     -1.61680176	      2.87745738	     44.99698546	    -15.00084063	     44.99698546	     75.00018072	     45.00000025	      0.00000000	      0.00000000	     44.99698546	    -15.00084063	     44.99698546	     75.00018072	     45.00000025	      0.00000000	      0.00000000
      0.67000000	     -9.08860630	      0.46287712	     -3.28566951	      0.18084157	      0.72735881	     -1.19817010	     50.10118609	    -36.06436911	    -17.38582812	     76.07576223	      1.32777253	     19.07506395	     -0.54980774	      0.00000000	     45.61025990	    -43.37598989	    -27.31837220	     74.15160412	      1.29418964	     17.37020356	     13.80910117	      0.00000000	     -9.25839526	     -1.69068637	      2.88202866	     44.99700174	    -15.00083351	     44.99700174	     75.00018065	     45.00000025	      0.00000000	      0.00000000	     44.99700174	    -15.00083351	     44.99700174	     75.00018065	     45.00000025	      0.00000000	      0.00000000
      0.67500000	     -8.96675116	      0.48658739	     -3.29917570	      0.18020555	      0.72494897	     -1.19809217	     50.44111971	    -36.23606518	    -17.12613819	     76.68187930	      1.33835127	     19.30055112	     -0.60547844	      0.00000000	     45.88306345	    -43.60011669	    -27.11142768	     74.74653582	      1.30457315	     17.54615545	     13.86809155	      0.00000000	     -9.61888708	     -1.71551294	      2.88079794	     44.99701849	    -15.00082618	     44.99701849	     75.00018058	     45.00000025	      0.00000000	      0.00000000	     44.99701849	    -15.00082618	     44.99701849	     75.00018058	     45.00000025	      0.00000000	      0.00000000
      0.68000000	     -9.44076990	      0.46935988	     -3.24966910	      0.17966947	      0.72116899	     -1.19802283	     51.43196000	    -36.38499547	    -16.79780055	     77.40917979	      1.35104506	     19.74021843	     -0.13813197	      0.00000000	     47.04698257	    -43.85301598	    -26.54631100	     75.46268517	      1.31707232	     17.96629579	     14.40405492	      0.00000000	     -9.23244923	     -1.61656536	      2.97126456	     44.99703655	    -15.00081815	     44.99703655	     75.00018050	     45.00000025	      0.00000000	      0.00000000	     44.99703655	    -15.00081815	     44.99703655	     75.00018050	     45.00000025	      0.00000000	      0.00000000
